{
	"patcher" : 	{
		"fileversion" : 1,
		"appversion" : 		{
			"major" : 8,
			"minor" : 2,
			"revision" : 2,
			"architecture" : "x64",
			"modernui" : 1
		}
,
		"classnamespace" : "box",
		"rect" : [ 296.0, 241.0, 640.0, 480.0 ],
		"bglocked" : 0,
		"openinpresentation" : 0,
		"default_fontsize" : 12.0,
		"default_fontface" : 0,
		"default_fontname" : "Ricty",
		"gridonopen" : 2,
		"gridsize" : [ 10.0, 10.0 ],
		"gridsnaponopen" : 2,
		"objectsnaponopen" : 1,
		"statusbarvisible" : 2,
		"toolbarvisible" : 1,
		"lefttoolbarpinned" : 0,
		"toptoolbarpinned" : 0,
		"righttoolbarpinned" : 0,
		"bottomtoolbarpinned" : 0,
		"toolbars_unpinned_last_save" : 0,
		"tallnewobj" : 0,
		"boxanimatetime" : 200,
		"enablehscroll" : 1,
		"enablevscroll" : 1,
		"devicewidth" : 0.0,
		"description" : "",
		"digest" : "",
		"tags" : "",
		"style" : "",
		"subpatcher_template" : "myTemplate",
		"assistshowspatchername" : 0,
		"boxes" : [ 			{
				"box" : 				{
					"attr" : "sustain",
					"id" : "obj-11",
					"maxclass" : "attrui",
					"numinlets" : 1,
					"numoutlets" : 1,
					"outlettype" : [ "" ],
					"patching_rect" : [ 310.0, 10.0, 120.0, 21.0 ],
					"text_width" : 68.0
				}

			}
, 			{
				"box" : 				{
					"attr" : "decay",
					"id" : "obj-10",
					"maxclass" : "attrui",
					"numinlets" : 1,
					"numoutlets" : 1,
					"outlettype" : [ "" ],
					"patching_rect" : [ 180.0, 10.0, 120.0, 21.0 ],
					"text_width" : 68.0
				}

			}
, 			{
				"box" : 				{
					"attr" : "attack",
					"id" : "obj-9",
					"maxclass" : "attrui",
					"numinlets" : 1,
					"numoutlets" : 1,
					"outlettype" : [ "" ],
					"patching_rect" : [ 50.0, 10.0, 120.0, 21.0 ],
					"text_width" : 68.0
				}

			}
, 			{
				"box" : 				{
					"attr" : "release",
					"id" : "obj-6",
					"maxclass" : "attrui",
					"numinlets" : 1,
					"numoutlets" : 1,
					"outlettype" : [ "" ],
					"patching_rect" : [ 440.0, 10.0, 120.0, 21.0 ],
					"text_width" : 68.0
				}

			}
, 			{
				"box" : 				{
					"id" : "obj-4",
					"maxclass" : "live.scope~",
					"numinlets" : 2,
					"numoutlets" : 1,
					"outlettype" : [ "bang" ],
					"patching_rect" : [ 10.0, 80.0, 184.0, 68.0 ]
				}

			}
, 			{
				"box" : 				{
					"id" : "obj-3",
					"maxclass" : "newobj",
					"numinlets" : 1,
					"numoutlets" : 1,
					"outlettype" : [ "signal" ],
					"patcher" : 					{
						"fileversion" : 1,
						"appversion" : 						{
							"major" : 8,
							"minor" : 2,
							"revision" : 2,
							"architecture" : "x64",
							"modernui" : 1
						}
,
						"classnamespace" : "dsp.gen",
						"rect" : [ 627.0, 87.0, 856.0, 894.0 ],
						"bglocked" : 0,
						"openinpresentation" : 0,
						"default_fontsize" : 12.0,
						"default_fontface" : 0,
						"default_fontname" : "Ricty",
						"gridonopen" : 2,
						"gridsize" : [ 10.0, 10.0 ],
						"gridsnaponopen" : 2,
						"objectsnaponopen" : 1,
						"statusbarvisible" : 2,
						"toolbarvisible" : 1,
						"lefttoolbarpinned" : 0,
						"toptoolbarpinned" : 0,
						"righttoolbarpinned" : 0,
						"bottomtoolbarpinned" : 0,
						"toolbars_unpinned_last_save" : 0,
						"tallnewobj" : 0,
						"boxanimatetime" : 200,
						"enablehscroll" : 1,
						"enablevscroll" : 1,
						"devicewidth" : 0.0,
						"description" : "",
						"digest" : "",
						"tags" : "",
						"style" : "",
						"subpatcher_template" : "myTemplate",
						"assistshowspatchername" : 0,
						"boxes" : [ 							{
								"box" : 								{
									"code" : "//============================================================\n// state variables\n\nHistory y(0);\nHistory d_attack(0);\nHistory d_decay(0);\nHistory d_release(0);\nHistory l_sustain(0);\nHistory breakpoint(0);\n\n//============================================================\n// parameters\n\nParam attack(8, min=0);\nParam decay(30, min=0);\nParam sustain(0.8, min=0, max=1);\nParam release(550, min=0);\n\n//============================================================\n// main loop\n\n// manages state variables according to the gate signal received from in1 and the state of breakpoint.\n// the state of the envelope generator at breakpoint is as follows.\n// 0 = stationaly\n// 1 = in the middle of the attack\n// 2 = in the middle of the decay\n// 3 = sustain\n// 4 = in the middle of the release\r\n\nif(in1!=0)\n{\n    if(breakpoint==0)\n    {\n        y           = 0;\n        l_sustain   = in1             * sustain;\n        d_attack    = in1             / mstosamps(attack);\n        d_decay     = (l_sustain-in1) / mstosamps(decay);\n        breakpoint  = 1;\n    }\n    else if(breakpoint==4)\n    {\n        l_sustain   = in1             * sustain;\n        d_attack    = (in1-y)         / mstosamps(attack);\n        d_decay     = (l_sustain-in1) / mstosamps(decay);\n        breakpoint  = 1;\n    }\n}\nelse\n{\n    if(breakpoint==3)\n    {\n        d_release   = -l_sustain / mstosamps(release);\n        breakpoint  = 4;\n    }\n    else if(breakpoint==1 || breakpoint==2)\n    {\n        d_release  = -y / mstosamps(release);\n        breakpoint = 4;\n    }\n}\n\nout1 = y;\r\n\r\n// update y\n\nif(breakpoint==1)\n{\n    y = (d_attack!=0) ? clip(y+d_attack, 0, in1) : in1;\n    if(y>=in1) breakpoint = 2;\n}\nelse if(breakpoint==2)\n{\n    y = (d_decay!=0) ? clip(y+d_decay, l_sustain, in1) : l_sustain;\n    if(y<=l_sustain) breakpoint = 3;\n}\nelse if(breakpoint==3)\n{\n    y = l_sustain;\n}\nelse if(breakpoint==4)\n{\n    y = (d_release!=0) ? clip(y+d_release, 0, l_sustain) : 0;\n    if(y<=0) breakpoint = 0;\n}\n",
									"fontface" : 0,
									"fontname" : "<Monospaced>",
									"fontsize" : 12.0,
									"id" : "obj-5",
									"maxclass" : "codebox",
									"numinlets" : 1,
									"numoutlets" : 1,
									"outlettype" : [ "" ],
									"patching_rect" : [ 10.0, 40.0, 830.0, 810.0 ]
								}

							}
, 							{
								"box" : 								{
									"id" : "obj-1",
									"maxclass" : "newobj",
									"numinlets" : 0,
									"numoutlets" : 1,
									"outlettype" : [ "" ],
									"patching_rect" : [ 10.0, 10.0, 32.0, 21.0 ],
									"text" : "in 1"
								}

							}
, 							{
								"box" : 								{
									"id" : "obj-4",
									"maxclass" : "newobj",
									"numinlets" : 1,
									"numoutlets" : 0,
									"patching_rect" : [ 10.0, 860.0, 38.0, 21.0 ],
									"text" : "out 1"
								}

							}
 ],
						"lines" : [ 							{
								"patchline" : 								{
									"destination" : [ "obj-5", 0 ],
									"source" : [ "obj-1", 0 ]
								}

							}
, 							{
								"patchline" : 								{
									"destination" : [ "obj-4", 0 ],
									"source" : [ "obj-5", 0 ]
								}

							}
 ]
					}
,
					"patching_rect" : [ 10.0, 50.0, 32.0, 21.0 ],
					"text" : "gen~"
				}

			}
, 			{
				"box" : 				{
					"id" : "obj-2",
					"maxclass" : "toggle",
					"numinlets" : 1,
					"numoutlets" : 1,
					"outlettype" : [ "int" ],
					"parameter_enable" : 0,
					"patching_rect" : [ 10.0, 10.0, 24.0, 24.0 ]
				}

			}
 ],
		"lines" : [ 			{
				"patchline" : 				{
					"destination" : [ "obj-3", 0 ],
					"midpoints" : [ 189.5, 40.0, 19.5, 40.0 ],
					"source" : [ "obj-10", 0 ]
				}

			}
, 			{
				"patchline" : 				{
					"destination" : [ "obj-3", 0 ],
					"midpoints" : [ 319.5, 40.0, 19.5, 40.0 ],
					"source" : [ "obj-11", 0 ]
				}

			}
, 			{
				"patchline" : 				{
					"destination" : [ "obj-3", 0 ],
					"source" : [ "obj-2", 0 ]
				}

			}
, 			{
				"patchline" : 				{
					"destination" : [ "obj-4", 0 ],
					"source" : [ "obj-3", 0 ]
				}

			}
, 			{
				"patchline" : 				{
					"destination" : [ "obj-3", 0 ],
					"midpoints" : [ 449.5, 40.0, 19.5, 40.0 ],
					"source" : [ "obj-6", 0 ]
				}

			}
, 			{
				"patchline" : 				{
					"destination" : [ "obj-3", 0 ],
					"midpoints" : [ 59.5, 40.0, 19.5, 40.0 ],
					"source" : [ "obj-9", 0 ]
				}

			}
 ],
		"dependency_cache" : [  ],
		"autosave" : 0
	}

}
