{
	"patcher" : 	{
		"fileversion" : 1,
		"appversion" : 		{
			"major" : 8,
			"minor" : 2,
			"revision" : 2,
			"architecture" : "x64",
			"modernui" : 1
		}
,
		"classnamespace" : "box",
		"rect" : [ 307.0, 178.0, 1087.0, 649.0 ],
		"bglocked" : 0,
		"openinpresentation" : 0,
		"default_fontsize" : 12.0,
		"default_fontface" : 0,
		"default_fontname" : "Ricty",
		"gridonopen" : 2,
		"gridsize" : [ 10.0, 10.0 ],
		"gridsnaponopen" : 2,
		"objectsnaponopen" : 1,
		"statusbarvisible" : 2,
		"toolbarvisible" : 1,
		"lefttoolbarpinned" : 0,
		"toptoolbarpinned" : 0,
		"righttoolbarpinned" : 0,
		"bottomtoolbarpinned" : 0,
		"toolbars_unpinned_last_save" : 0,
		"tallnewobj" : 0,
		"boxanimatetime" : 200,
		"enablehscroll" : 1,
		"enablevscroll" : 1,
		"devicewidth" : 0.0,
		"description" : "",
		"digest" : "",
		"tags" : "",
		"style" : "",
		"subpatcher_template" : "myTemplate",
		"assistshowspatchername" : 0,
		"boxes" : [ 			{
				"box" : 				{
					"attr" : "cR",
					"id" : "obj-67",
					"maxclass" : "attrui",
					"numinlets" : 1,
					"numoutlets" : 1,
					"outlettype" : [ "" ],
					"patching_rect" : [ 760.0, 220.0, 150.0, 21.0 ]
				}

			}
, 			{
				"box" : 				{
					"attr" : "cD",
					"id" : "obj-68",
					"maxclass" : "attrui",
					"numinlets" : 1,
					"numoutlets" : 1,
					"outlettype" : [ "" ],
					"patching_rect" : [ 760.0, 190.0, 150.0, 21.0 ]
				}

			}
, 			{
				"box" : 				{
					"attr" : "cA",
					"id" : "obj-69",
					"maxclass" : "attrui",
					"numinlets" : 1,
					"numoutlets" : 1,
					"outlettype" : [ "" ],
					"patching_rect" : [ 760.0, 160.0, 150.0, 21.0 ]
				}

			}
, 			{
				"box" : 				{
					"attr" : "tR",
					"id" : "obj-70",
					"maxclass" : "attrui",
					"numinlets" : 1,
					"numoutlets" : 1,
					"outlettype" : [ "" ],
					"patching_rect" : [ 760.0, 130.0, 150.0, 21.0 ]
				}

			}
, 			{
				"box" : 				{
					"attr" : "tD",
					"id" : "obj-71",
					"maxclass" : "attrui",
					"numinlets" : 1,
					"numoutlets" : 1,
					"outlettype" : [ "" ],
					"patching_rect" : [ 760.0, 100.0, 150.0, 21.0 ]
				}

			}
, 			{
				"box" : 				{
					"attr" : "tA",
					"id" : "obj-72",
					"maxclass" : "attrui",
					"numinlets" : 1,
					"numoutlets" : 1,
					"outlettype" : [ "" ],
					"patching_rect" : [ 760.0, 70.0, 150.0, 21.0 ]
				}

			}
, 			{
				"box" : 				{
					"attr" : "sT",
					"id" : "obj-57",
					"maxclass" : "attrui",
					"numinlets" : 1,
					"numoutlets" : 1,
					"outlettype" : [ "" ],
					"patching_rect" : [ 600.0, 280.0, 150.0, 21.0 ]
				}

			}
, 			{
				"box" : 				{
					"attr" : "sS",
					"id" : "obj-58",
					"maxclass" : "attrui",
					"numinlets" : 1,
					"numoutlets" : 1,
					"outlettype" : [ "" ],
					"patching_rect" : [ 600.0, 250.0, 150.0, 21.0 ]
				}

			}
, 			{
				"box" : 				{
					"attr" : "sP",
					"id" : "obj-59",
					"maxclass" : "attrui",
					"numinlets" : 1,
					"numoutlets" : 1,
					"outlettype" : [ "" ],
					"patching_rect" : [ 600.0, 220.0, 150.0, 21.0 ]
				}

			}
, 			{
				"box" : 				{
					"attr" : "s0",
					"id" : "obj-60",
					"maxclass" : "attrui",
					"numinlets" : 1,
					"numoutlets" : 1,
					"outlettype" : [ "" ],
					"patching_rect" : [ 600.0, 190.0, 150.0, 21.0 ]
				}

			}
, 			{
				"box" : 				{
					"attr" : "lT",
					"id" : "obj-61",
					"maxclass" : "attrui",
					"numinlets" : 1,
					"numoutlets" : 1,
					"outlettype" : [ "" ],
					"patching_rect" : [ 600.0, 160.0, 150.0, 21.0 ]
				}

			}
, 			{
				"box" : 				{
					"attr" : "lS",
					"id" : "obj-62",
					"maxclass" : "attrui",
					"numinlets" : 1,
					"numoutlets" : 1,
					"outlettype" : [ "" ],
					"patching_rect" : [ 600.0, 130.0, 150.0, 21.0 ]
				}

			}
, 			{
				"box" : 				{
					"attr" : "lP",
					"id" : "obj-63",
					"maxclass" : "attrui",
					"numinlets" : 1,
					"numoutlets" : 1,
					"outlettype" : [ "" ],
					"patching_rect" : [ 600.0, 100.0, 150.0, 21.0 ]
				}

			}
, 			{
				"box" : 				{
					"attr" : "l0",
					"id" : "obj-64",
					"maxclass" : "attrui",
					"numinlets" : 1,
					"numoutlets" : 1,
					"outlettype" : [ "" ],
					"patching_rect" : [ 600.0, 70.0, 150.0, 21.0 ]
				}

			}
, 			{
				"box" : 				{
					"id" : "obj-56",
					"maxclass" : "live.scope~",
					"numinlets" : 2,
					"numoutlets" : 1,
					"outlettype" : [ "bang" ],
					"patching_rect" : [ 370.0, 390.0, 184.0, 68.0 ]
				}

			}
, 			{
				"box" : 				{
					"id" : "obj-55",
					"maxclass" : "newobj",
					"numinlets" : 1,
					"numoutlets" : 1,
					"outlettype" : [ "signal" ],
					"patcher" : 					{
						"fileversion" : 1,
						"appversion" : 						{
							"major" : 8,
							"minor" : 2,
							"revision" : 2,
							"architecture" : "x64",
							"modernui" : 1
						}
,
						"classnamespace" : "dsp.gen",
						"rect" : [ 59.0, 104.0, 1093.0, 765.0 ],
						"bglocked" : 0,
						"openinpresentation" : 0,
						"default_fontsize" : 12.0,
						"default_fontface" : 0,
						"default_fontname" : "Ricty",
						"gridonopen" : 2,
						"gridsize" : [ 10.0, 10.0 ],
						"gridsnaponopen" : 2,
						"objectsnaponopen" : 1,
						"statusbarvisible" : 2,
						"toolbarvisible" : 1,
						"lefttoolbarpinned" : 0,
						"toptoolbarpinned" : 0,
						"righttoolbarpinned" : 0,
						"bottomtoolbarpinned" : 0,
						"toolbars_unpinned_last_save" : 0,
						"tallnewobj" : 0,
						"boxanimatetime" : 200,
						"enablehscroll" : 1,
						"enablevscroll" : 1,
						"devicewidth" : 0.0,
						"description" : "",
						"digest" : "",
						"tags" : "",
						"style" : "",
						"subpatcher_template" : "myTemplate",
						"assistshowspatchername" : 0,
						"boxes" : [ 							{
								"box" : 								{
									"id" : "obj-6",
									"maxclass" : "newobj",
									"numinlets" : 1,
									"numoutlets" : 0,
									"patching_rect" : [ 10.0, 720.0, 38.0, 21.0 ],
									"text" : "out 1"
								}

							}
, 							{
								"box" : 								{
									"code" : "//============================================================\n// function\n\n// curve(x, from, to, amt)\n// {\n//     // scale x from [from, to] to [0, 1]\n//     y = (x-from) / (to-from);\n\n//     if(amt>0)\n//     {\n//         y = exp(ln(y) * (1/(1-amt)));\n//     }\n//     else\n//     {\n//         y = exp(ln(y) * (1+amt));\n//     }\n\n//     // scale y from [0, 1] to [to, from]\n//     return y * (to-from) + from;\n// }\n\nAdsrEnvelopeGenerator(gate, l0, lP, lS, lT, s0, sP, sS, sT, tA, tD, tR, cA, cD, cR)\n{\n    History y0(0);\n    History deltaA(0);\n    History deltaD(0);\n    History deltaR(0);\n    History curveA(0);\n    History curveD(0);\n    History curveR(0);\n    History level0(0);\n    History levelP(0);\n    History levelS(0);\n    History levelT(0);\n    History breakpoint(0);\n\n    // The state of the envelope generator is managed by breakpoint.\n    //  breakpoint==0 -> free\n    //  breakpoint==1 -> during the attack time\n    //  breakpoint==2 -> during the decay time\n    //  breakpoint==3 -> state of sustain\n    //  breakpoint==4 -> during the release time\n\n    // gate is on\n    if(gate!=0)\n    {\n        // when envelope generator is free\n        if(breakpoint==0)\n        {\n            level0 = l0 * (1 - (1-gate) * s0);\n            levelP = lP * (1 - (1-gate) * sP);\n            levelS = lS * (1 - (1-gate) * sS);\n            curveA = cA;\n            curveD = cD;\n            deltaA = (levelP-level0) / mstosamps(tA);\n            deltaD = (levelS-levelP) / mstosamps(tD);\n            breakpoint = 1;\n        }\n        // when envelope generator is during the release time\n        else if(breakpoint==4)\n        {\n            level0 = y0;\n            levelP = lP * (1 - (1-gate) * sP);\n            levelS = lS * (1 - (1-gate) * sS);\n            curveA = cA;\n            curveD = cD;\n            deltaA = (levelP-level0) / mstosamps(tA);\n            deltaD = (levelS-levelP) / mstosamps(tD);\n            breakpoint = 1;\n        }\n    }\n    // gate is off\n    else\n    {\n        // when envelope generator is state of sustain\n        if(breakpoint==3)\n        {\n            levelT = lT;\n            curveR = cR;\n            deltaR = (levelT-levelS) / mstosamps(tR);\n            breakpoint = 4;\n        }\n        // when envelope generator is during the attack or decay\n        else if(breakpoint==1 || breakpoint==2)\n        {\n            levelT = lT;\n            curveR = cR;\n            deltaR = (levelT-y0) / mstosamps(tR);\n            breakpoint = 4;\n        }\n    }\n\n    y = y0;\n\n    // update of envelope generator\n    // when attack\n    if(breakpoint==1)\n    {\n        if(deltaA!=0)\n        {\n            y0 = clip(y0+deltaA, 0, levelP);\n        }\n        else\n        {\n            y0 = levelP;\n        }\n\n        if(y>=levelP)\n        {\n            breakpoint = 2;\n        }\n    }\n    // when decay\n    else if(breakpoint==2)\n    {\n        if(deltaD!=0)\n        {\n            y0 =  clip(y0+deltaD, levelS, levelP);\n        }\n        else\n        {\n            y0 = levelS;\n        }\n\n        if(y0<=levelS)\n        {\n            breakpoint = 3;\n        }\n    }\n    else if(breakpoint==3)\n    {\n        y0 = levelS;\n    }\n    else if(breakpoint==4)\n    {\n        if(deltaR!=0)\n        {\n            y0 = clip(y0+deltaR, levelT, levelS);\n        }\n        else\n        {\n            y0 = levelT;\n        }\n\n        if(y0<=levelT)\n        {\n            breakpoint = 0;\n        }\n    }\n\n    return y;\n}\n\n// ADSREnvelopeGenerator(gate, time_attack, time_decay, time_release, curve_attack, curve_decay, curve_release, sustain, sensitivity)\n// {\n//     History yLinear(0);\n//     History yCurve(0);\n//     History dAttack(0);\n//     History dDecay(0);\n//     History dRelease(0);\n//     History lPeak(0);\n//     History lSustain(0);\n//     History amtCurveAttack(0);\n//     History amtCurveDecay(0);\n//     History amtCurveRelease(0);\n//     History breakpoint(0);\n\n//     // The state of the envelope generator is managed by breakpoint.\n//     //  breakpoint==0 -> free\n//     //  breakpoint==1 -> during the attack time\n//     //  breakpoint==2 -> during the decay time\n//     //  breakpoint==3 -> state of sustain\n//     //  breakpoint==4 -> during the release time\n\n//     if(gate!=0)\n//     {\n//         // when envelope generator is free\n//         if(breakpoint==0)\n//         {\n//             lPeak           = 1 - (1-gate) * sensitivity;\n//             lSustain        = lPeak * sustain;\n//             yLinear         = 0;\n//             yCurve          = 0;\n//             dAttack         = lPeak            / mstosamps(time_attack);\n//             dDecay          = (lSustain-lPeak) / mstosamps(time_decay);\n//             amtCurveAttack  = curve_attack;\n//             amtCurveDecay   = curve_decay;\n//             breakpoint      = 1;\n//         }\n//         // when envelope generator is during the release time\n//         else if(breakpoint==4)\n//         {\n//             lPeak           = 1 - (1-gate) * sensitivity;\n//             lSustain        = lPeak * sustain;\n//             dAttack         = (lPeak-yLinear)  / mstosamps(time_attack);\n//             dDecay          = (lSustain-lPeak) / mstosamps(time_decay);\n//             amtCurveAttack  = curve_attack;\n//             amtCurveDecay   = curve_decay;\n//             breakpoint      = 1;\n//         }\n//     }\n//     else\n//     {\n//         // when envelope generator is state of sustain\n//         if(breakpoint==3)\n//         {\n//             dRelease        = -lSustain / mstosamps(time_release);\n//             amtCurveRelease = curve_release;\n//             breakpoint      = 4;\n//         }\n//         // when envelope generator is during the attack or decay\n//         else if(breakpoint==1 || breakpoint==2)\n//         {\n//             dRelease        = -yLinear / mstosamps(time_release);\n//             amtCurveRelease = curve_release;\n//             breakpoint      = 4;\n//         }\n//     }\n\n//     y0 = yCurve;\n\n//     // update of envelope generator\n//     // when attack\n//     if(breakpoint==1)\n//     {\n//         if(dAttack!=0)\n//         {\n//             yLinear = clip(yLinear+dAttack, 0, lPeak);\n//             yCurve  = amtCurveAttack!=0 ? curve(yLinear, 0, lPeak, amtCurveAttack) : yLinear;\n//         }\n//         else\n//         {\n//             yLinear = lPeak;\n//             yCurve  = lPeak;\n//         }\n\n//         if(yLinear>=lPeak)\n//         {\n//             breakpoint = 2;\n//         }\n//     }\n//     // when decay\n//     else if(breakpoint==2)\n//     {\n//         if(dDecay!=0)\n//         {\n//             yLinear = clip(yLinear+dDecay, lSustain, lPeak);\n//             yCurve  = amtCurveDecay!=0 ? curve(yLinear, lPeak, lSustain, amtCurveDecay) : yLinear;\n//         }\n//         else\n//         {\n//             yLinear = lSustain;\n//             yCurve  = lSustain;\n//         }\n\n//         if(yLinear<=lSustain)\n//         {\n//             breakpoint = 3;\n//         }\n//     }\n//     // when sustain\n//     else if(breakpoint==3)\n//     {\n//         yLinear = lSustain;\n//         yCurve  = lSustain;\n//     }\n//     // when release\n//     else if(breakpoint==4)\n//     {\n//         if(dRelease!=0)\n//         {\n//             yLinear = clip(yLinear+dRelease, 0, lSustain);\n//             yCurve  = amtCurveRelease!=0 ? curve(yLinear, lSustain, 0, amtCurveRelease) : yLinear;\n//         }\n//         else\n//         {\n//             yLinear = 0;\n//             yCurve  = 0;\n//         }\n\n//         if(yLinear<=0)\n//         {\n//             breakpoint = 0;\n//         }\n//     }\n\n//     return y0;\n// }\n\n//============================================================\n// parameters\n\nParam l0(0, min=0);\nParam lP(1, min=0);\nParam lS(0.5, min=0);\nParam lT(0, min=0);\nParam s0(0, min=0,  max=1);\nParam sP(0, min=0,  max=1);\nParam sS(0, min=0,  max=1);\nParam sT(0, min=0,  max=1);\nParam tA(1000, min=0);\nParam tD(1000, min=0);\nParam tR(1000, min=0);\nParam cA(0, min=-1, max=1);\nParam cD(0, min=-1, max=1);\nParam cR(0, min=-1, max=1);\n\nout1 = AdsrEnvelopeGenerator(in1, l0, lP, lS, lT, s0, sP, sS, sT, tA, tD, tR, cA, cD, cR);",
									"fontface" : 0,
									"fontname" : "<Monospaced>",
									"fontsize" : 12.0,
									"id" : "obj-5",
									"maxclass" : "codebox",
									"numinlets" : 1,
									"numoutlets" : 1,
									"outlettype" : [ "" ],
									"patching_rect" : [ 10.0, 40.0, 1070.0, 670.0 ]
								}

							}
, 							{
								"box" : 								{
									"id" : "obj-1",
									"maxclass" : "newobj",
									"numinlets" : 0,
									"numoutlets" : 1,
									"outlettype" : [ "" ],
									"patching_rect" : [ 10.0, 10.0, 32.0, 21.0 ],
									"text" : "in 1"
								}

							}
 ],
						"lines" : [ 							{
								"patchline" : 								{
									"destination" : [ "obj-5", 0 ],
									"source" : [ "obj-1", 0 ]
								}

							}
, 							{
								"patchline" : 								{
									"destination" : [ "obj-6", 0 ],
									"source" : [ "obj-5", 0 ]
								}

							}
 ]
					}
,
					"patching_rect" : [ 360.0, 330.5, 32.0, 21.0 ],
					"text" : "gen~"
				}

			}
, 			{
				"box" : 				{
					"attr" : "sensitivity",
					"id" : "obj-1",
					"maxclass" : "attrui",
					"numinlets" : 1,
					"numoutlets" : 1,
					"outlettype" : [ "" ],
					"patching_rect" : [ 340.0, 250.0, 150.0, 21.0 ]
				}

			}
, 			{
				"box" : 				{
					"attr" : "curve_release",
					"id" : "obj-2",
					"maxclass" : "attrui",
					"numinlets" : 1,
					"numoutlets" : 1,
					"outlettype" : [ "" ],
					"patching_rect" : [ 340.0, 220.0, 150.0, 21.0 ]
				}

			}
, 			{
				"box" : 				{
					"attr" : "curve_decay",
					"id" : "obj-3",
					"maxclass" : "attrui",
					"numinlets" : 1,
					"numoutlets" : 1,
					"outlettype" : [ "" ],
					"patching_rect" : [ 340.0, 190.0, 150.0, 21.0 ]
				}

			}
, 			{
				"box" : 				{
					"attr" : "curve_attack",
					"id" : "obj-4",
					"maxclass" : "attrui",
					"numinlets" : 1,
					"numoutlets" : 1,
					"outlettype" : [ "" ],
					"patching_rect" : [ 340.0, 160.0, 150.0, 21.0 ]
				}

			}
, 			{
				"box" : 				{
					"id" : "obj-26",
					"maxclass" : "toggle",
					"numinlets" : 1,
					"numoutlets" : 1,
					"outlettype" : [ "int" ],
					"parameter_enable" : 0,
					"patching_rect" : [ 70.0, 110.0, 24.0, 24.0 ]
				}

			}
, 			{
				"box" : 				{
					"attr" : "time_release",
					"id" : "obj-19",
					"maxclass" : "attrui",
					"numinlets" : 1,
					"numoutlets" : 1,
					"outlettype" : [ "" ],
					"patching_rect" : [ 340.0, 130.0, 150.0, 21.0 ]
				}

			}
, 			{
				"box" : 				{
					"attr" : "sustain",
					"id" : "obj-20",
					"maxclass" : "attrui",
					"numinlets" : 1,
					"numoutlets" : 1,
					"outlettype" : [ "" ],
					"patching_rect" : [ 340.0, 100.0, 150.0, 21.0 ]
				}

			}
, 			{
				"box" : 				{
					"attr" : "time_decay",
					"id" : "obj-18",
					"maxclass" : "attrui",
					"numinlets" : 1,
					"numoutlets" : 1,
					"outlettype" : [ "" ],
					"patching_rect" : [ 340.0, 70.0, 150.0, 21.0 ]
				}

			}
, 			{
				"box" : 				{
					"attr" : "time_attack",
					"id" : "obj-17",
					"maxclass" : "attrui",
					"numinlets" : 1,
					"numoutlets" : 1,
					"outlettype" : [ "" ],
					"patching_rect" : [ 340.0, 40.0, 150.0, 21.0 ]
				}

			}
, 			{
				"box" : 				{
					"id" : "obj-15",
					"maxclass" : "message",
					"numinlets" : 2,
					"numoutlets" : 1,
					"outlettype" : [ "" ],
					"patching_rect" : [ 70.0, 190.0, 38.0, 21.0 ],
					"text" : "reset"
				}

			}
, 			{
				"box" : 				{
					"id" : "obj-11",
					"maxclass" : "live.scope~",
					"numinlets" : 2,
					"numoutlets" : 1,
					"outlettype" : [ "bang" ],
					"patching_rect" : [ 100.0, 283.5, 184.0, 68.0 ]
				}

			}
, 			{
				"box" : 				{
					"id" : "obj-10",
					"maxclass" : "newobj",
					"numinlets" : 1,
					"numoutlets" : 1,
					"outlettype" : [ "signal" ],
					"patcher" : 					{
						"fileversion" : 1,
						"appversion" : 						{
							"major" : 8,
							"minor" : 2,
							"revision" : 2,
							"architecture" : "x64",
							"modernui" : 1
						}
,
						"classnamespace" : "dsp.gen",
						"rect" : [ 594.0, 87.0, 1096.0, 698.0 ],
						"bglocked" : 0,
						"openinpresentation" : 0,
						"default_fontsize" : 12.0,
						"default_fontface" : 0,
						"default_fontname" : "Ricty",
						"gridonopen" : 2,
						"gridsize" : [ 10.0, 10.0 ],
						"gridsnaponopen" : 2,
						"objectsnaponopen" : 1,
						"statusbarvisible" : 2,
						"toolbarvisible" : 1,
						"lefttoolbarpinned" : 0,
						"toptoolbarpinned" : 0,
						"righttoolbarpinned" : 0,
						"bottomtoolbarpinned" : 0,
						"toolbars_unpinned_last_save" : 0,
						"tallnewobj" : 0,
						"boxanimatetime" : 200,
						"enablehscroll" : 1,
						"enablevscroll" : 1,
						"devicewidth" : 0.0,
						"description" : "",
						"digest" : "",
						"tags" : "",
						"style" : "",
						"subpatcher_template" : "myTemplate",
						"assistshowspatchername" : 0,
						"boxes" : [ 							{
								"box" : 								{
									"code" : "//============================================================\n// function\n\ncurve(x, from, to, amt)\n{\n    // scale x from [from, to] to [0, 1]\n    y = (x-from) / (to-from);\n\n    if(amt>0)\n    {\n        y = exp(ln(y) * (1/(1-amt)));\n    }\n    else\n    {\n        y = exp(ln(y) * (1+amt));\n    }\n\n    // scale y from [0, 1] to [to, from]\n    return y * (to-from) + from;\n}\n\nADSREnvelopeGenerator(gate, time_attack, time_decay, time_release, curve_attack, curve_decay, curve_release, sustain, sensitivity)\n{\n    History yLinear(0);\n    History yCurve(0);\n    History dAttack(0);\n    History dDecay(0);\n    History dRelease(0);\n    History lPeak(0);\n    History lSustain(0);\n    History amtCurveAttack(0);\n    History amtCurveDecay(0);\n    History amtCurveRelease(0);\n    History breakpoint(0);\n\n    // The state of the envelope generator is managed by breakpoint.\n    //  breakpoint==0 -> free\n    //  breakpoint==1 -> during the attack time\n    //  breakpoint==2 -> during the decay time\n    //  breakpoint==3 -> state of sustain\n    //  breakpoint==4 -> during the release time\n\n    if(gate!=0)\n    {\n        // when envelope generator is free\n        if(breakpoint==0)\n        {\n            lPeak           = 1 - (1-gate) * sensitivity;\n            lSustain        = lPeak * sustain;\n            yLinear         = 0;\n            yCurve          = 0;\n            dAttack         = lPeak            / mstosamps(time_attack);\n            dDecay          = (lSustain-lPeak) / mstosamps(time_decay);\n            amtCurveAttack  = curve_attack;\n            amtCurveDecay   = curve_decay;\n            breakpoint      = 1;\n        }\n        // when envelope generator is during the release time\n        else if(breakpoint==4)\n        {\n            lPeak           = 1 - (1-gate) * sensitivity;\n            lSustain        = lPeak * sustain;\n            dAttack         = (lPeak-yLinear)  / mstosamps(time_attack);\n            dDecay          = (lSustain-lPeak) / mstosamps(time_decay);\n            amtCurveAttack  = curve_attack;\n            amtCurveDecay   = curve_decay;\n            breakpoint      = 1;\n        }\n    }\n    else\n    {\n        // when envelope generator is state of sustain\n        if(breakpoint==3)\n        {\n            dRelease        = -lSustain / mstosamps(time_release);\n            amtCurveRelease = curve_release;\n            breakpoint      = 4;\n        }\n        // when envelope generator is during the attack or decay\n        else if(breakpoint==1 || breakpoint==2)\n        {\n            dRelease        = -yLinear / mstosamps(time_release);\n            amtCurveRelease = curve_release;\n            breakpoint      = 4;\n        }\n    }\n\n    y0 = yCurve;\n\n    // update of envelope generator\n    // when attack\n    if(breakpoint==1)\n    {\n        if(dAttack!=0)\n        {\n            yLinear = clip(yLinear+dAttack, 0, lPeak);\n            yCurve  = amtCurveAttack!=0 ? curve(yLinear, 0, lPeak, amtCurveAttack) : yLinear;\n        }\n        else\n        {\n            yLinear = lPeak;\n            yCurve  = lPeak;\n        }\n\n        if(yLinear>=lPeak)\n        {\n            breakpoint = 2;\n        }\n    }\n    // when decay\n    else if(breakpoint==2)\n    {\n        if(dDecay!=0)\n        {\n            yLinear = clip(yLinear+dDecay, lSustain, lPeak);\n            yCurve  = amtCurveDecay!=0 ? curve(yLinear, lPeak, lSustain, amtCurveDecay) : yLinear;\n        }\n        else\n        {\n            yLinear = lSustain;\n            yCurve  = lSustain;\n        }\n\n        if(yLinear<=lSustain)\n        {\n            breakpoint = 3;\n        }\n    }\n    // when sustain\n    else if(breakpoint==3)\n    {\n        yLinear = lSustain;\n        yCurve  = lSustain;\n    }\n    // when release\n    else if(breakpoint==4)\n    {\n        if(dRelease!=0)\n        {\n            yLinear = clip(yLinear+dRelease, 0, lSustain);\n            yCurve  = amtCurveRelease!=0 ? curve(yLinear, lSustain, 0, amtCurveRelease) : yLinear;\n        }\n        else\n        {\n            yLinear = 0;\n            yCurve  = 0;\n        }\n\n        if(yLinear<=0)\n        {\n            breakpoint = 0;\n        }\n    }\n\n    return y0;\n}\n\n//============================================================\n// parameters\n\nParam time_attack(5, min=0);\nParam time_decay(80, min=0);\nParam time_release(300, min=0);\nParam curve_attack(0, min=-1, max=1);\nParam curve_decay(0, min=-1, max=1);\nParam curve_release(0, min=-1, max=1);\nParam sustain(0.25, min=0, max=1);\nParam sensitivity(1, min=0, max=1);\n\nout1 = ADSREnvelopeGenerator(in1, time_attack, time_decay, time_release, curve_attack, curve_decay, curve_release, sustain, sensitivity);",
									"fontface" : 0,
									"fontname" : "<Monospaced>",
									"fontsize" : 12.0,
									"id" : "obj-7",
									"maxclass" : "codebox",
									"numinlets" : 1,
									"numoutlets" : 1,
									"outlettype" : [ "" ],
									"patching_rect" : [ 10.0, 40.0, 1070.0, 610.0 ]
								}

							}
, 							{
								"box" : 								{
									"id" : "obj-1",
									"maxclass" : "newobj",
									"numinlets" : 0,
									"numoutlets" : 1,
									"outlettype" : [ "" ],
									"patching_rect" : [ 10.0, 10.0, 32.0, 21.0 ],
									"text" : "in 1"
								}

							}
, 							{
								"box" : 								{
									"id" : "obj-4",
									"maxclass" : "newobj",
									"numinlets" : 1,
									"numoutlets" : 0,
									"patching_rect" : [ 10.0, 660.0, 38.0, 21.0 ],
									"text" : "out 1"
								}

							}
 ],
						"lines" : [ 							{
								"patchline" : 								{
									"destination" : [ "obj-7", 0 ],
									"source" : [ "obj-1", 0 ]
								}

							}
, 							{
								"patchline" : 								{
									"destination" : [ "obj-4", 0 ],
									"source" : [ "obj-7", 0 ]
								}

							}
 ]
					}
,
					"patching_rect" : [ 160.0, 210.0, 32.0, 21.0 ],
					"text" : "gen~"
				}

			}
, 			{
				"box" : 				{
					"format" : 6,
					"id" : "obj-9",
					"maxclass" : "flonum",
					"numinlets" : 1,
					"numoutlets" : 2,
					"outlettype" : [ "", "bang" ],
					"parameter_enable" : 0,
					"patching_rect" : [ 140.0, 140.0, 50.0, 21.0 ]
				}

			}
, 			{
				"box" : 				{
					"id" : "obj-7",
					"maxclass" : "newobj",
					"numinlets" : 1,
					"numoutlets" : 1,
					"outlettype" : [ "float" ],
					"patching_rect" : [ 140.0, 110.0, 164.0, 21.0 ],
					"text" : "gen @expr in1*abs(noise())"
				}

			}
, 			{
				"box" : 				{
					"id" : "obj-6",
					"maxclass" : "toggle",
					"numinlets" : 1,
					"numoutlets" : 1,
					"outlettype" : [ "int" ],
					"parameter_enable" : 0,
					"patching_rect" : [ 140.0, 80.0, 24.0, 24.0 ]
				}

			}
 ],
		"lines" : [ 			{
				"patchline" : 				{
					"destination" : [ "obj-10", 0 ],
					"source" : [ "obj-1", 0 ]
				}

			}
, 			{
				"patchline" : 				{
					"destination" : [ "obj-11", 0 ],
					"source" : [ "obj-10", 0 ]
				}

			}
, 			{
				"patchline" : 				{
					"destination" : [ "obj-10", 0 ],
					"order" : 1,
					"source" : [ "obj-15", 0 ]
				}

			}
, 			{
				"patchline" : 				{
					"destination" : [ "obj-55", 0 ],
					"order" : 0,
					"source" : [ "obj-15", 0 ]
				}

			}
, 			{
				"patchline" : 				{
					"destination" : [ "obj-10", 0 ],
					"source" : [ "obj-17", 0 ]
				}

			}
, 			{
				"patchline" : 				{
					"destination" : [ "obj-10", 0 ],
					"source" : [ "obj-18", 0 ]
				}

			}
, 			{
				"patchline" : 				{
					"destination" : [ "obj-10", 0 ],
					"source" : [ "obj-19", 0 ]
				}

			}
, 			{
				"patchline" : 				{
					"destination" : [ "obj-10", 0 ],
					"source" : [ "obj-2", 0 ]
				}

			}
, 			{
				"patchline" : 				{
					"destination" : [ "obj-10", 0 ],
					"source" : [ "obj-20", 0 ]
				}

			}
, 			{
				"patchline" : 				{
					"destination" : [ "obj-9", 0 ],
					"source" : [ "obj-26", 0 ]
				}

			}
, 			{
				"patchline" : 				{
					"destination" : [ "obj-10", 0 ],
					"source" : [ "obj-3", 0 ]
				}

			}
, 			{
				"patchline" : 				{
					"destination" : [ "obj-10", 0 ],
					"source" : [ "obj-4", 0 ]
				}

			}
, 			{
				"patchline" : 				{
					"destination" : [ "obj-56", 0 ],
					"source" : [ "obj-55", 0 ]
				}

			}
, 			{
				"patchline" : 				{
					"destination" : [ "obj-55", 0 ],
					"source" : [ "obj-57", 0 ]
				}

			}
, 			{
				"patchline" : 				{
					"destination" : [ "obj-55", 0 ],
					"source" : [ "obj-58", 0 ]
				}

			}
, 			{
				"patchline" : 				{
					"destination" : [ "obj-55", 0 ],
					"source" : [ "obj-59", 0 ]
				}

			}
, 			{
				"patchline" : 				{
					"destination" : [ "obj-7", 0 ],
					"source" : [ "obj-6", 0 ]
				}

			}
, 			{
				"patchline" : 				{
					"destination" : [ "obj-55", 0 ],
					"source" : [ "obj-60", 0 ]
				}

			}
, 			{
				"patchline" : 				{
					"destination" : [ "obj-55", 0 ],
					"source" : [ "obj-61", 0 ]
				}

			}
, 			{
				"patchline" : 				{
					"destination" : [ "obj-55", 0 ],
					"source" : [ "obj-62", 0 ]
				}

			}
, 			{
				"patchline" : 				{
					"destination" : [ "obj-55", 0 ],
					"source" : [ "obj-63", 0 ]
				}

			}
, 			{
				"patchline" : 				{
					"destination" : [ "obj-55", 0 ],
					"source" : [ "obj-64", 0 ]
				}

			}
, 			{
				"patchline" : 				{
					"destination" : [ "obj-55", 0 ],
					"source" : [ "obj-67", 0 ]
				}

			}
, 			{
				"patchline" : 				{
					"destination" : [ "obj-55", 0 ],
					"source" : [ "obj-68", 0 ]
				}

			}
, 			{
				"patchline" : 				{
					"destination" : [ "obj-55", 0 ],
					"source" : [ "obj-69", 0 ]
				}

			}
, 			{
				"patchline" : 				{
					"destination" : [ "obj-9", 0 ],
					"source" : [ "obj-7", 0 ]
				}

			}
, 			{
				"patchline" : 				{
					"destination" : [ "obj-55", 0 ],
					"source" : [ "obj-70", 0 ]
				}

			}
, 			{
				"patchline" : 				{
					"destination" : [ "obj-55", 0 ],
					"source" : [ "obj-71", 0 ]
				}

			}
, 			{
				"patchline" : 				{
					"destination" : [ "obj-55", 0 ],
					"source" : [ "obj-72", 0 ]
				}

			}
, 			{
				"patchline" : 				{
					"destination" : [ "obj-10", 0 ],
					"order" : 1,
					"source" : [ "obj-9", 0 ]
				}

			}
, 			{
				"patchline" : 				{
					"destination" : [ "obj-55", 0 ],
					"order" : 0,
					"source" : [ "obj-9", 0 ]
				}

			}
 ],
		"dependency_cache" : [  ],
		"autosave" : 0
	}

}
