{
	"patcher" : 	{
		"fileversion" : 1,
		"appversion" : 		{
			"major" : 8,
			"minor" : 2,
			"revision" : 2,
			"architecture" : "x64",
			"modernui" : 1
		}
,
		"classnamespace" : "box",
		"rect" : [ 431.0, 310.0, 348.0, 303.0 ],
		"bglocked" : 0,
		"openinpresentation" : 0,
		"default_fontsize" : 12.0,
		"default_fontface" : 0,
		"default_fontname" : "Ricty",
		"gridonopen" : 2,
		"gridsize" : [ 10.0, 10.0 ],
		"gridsnaponopen" : 2,
		"objectsnaponopen" : 1,
		"statusbarvisible" : 2,
		"toolbarvisible" : 1,
		"lefttoolbarpinned" : 0,
		"toptoolbarpinned" : 0,
		"righttoolbarpinned" : 0,
		"bottomtoolbarpinned" : 0,
		"toolbars_unpinned_last_save" : 0,
		"tallnewobj" : 0,
		"boxanimatetime" : 200,
		"enablehscroll" : 1,
		"enablevscroll" : 1,
		"devicewidth" : 0.0,
		"description" : "",
		"digest" : "",
		"tags" : "",
		"style" : "",
		"subpatcher_template" : "myTemplate",
		"assistshowspatchername" : 0,
		"boxes" : [ 			{
				"box" : 				{
					"id" : "obj-66",
					"maxclass" : "ezdac~",
					"numinlets" : 2,
					"numoutlets" : 0,
					"patching_rect" : [ 10.0, 250.0, 45.0, 45.0 ]
				}

			}
, 			{
				"box" : 				{
					"id" : "obj-65",
					"lastchannelcount" : 0,
					"maxclass" : "live.gain~",
					"numinlets" : 2,
					"numoutlets" : 5,
					"outlettype" : [ "signal", "signal", "", "float", "list" ],
					"parameter_enable" : 1,
					"patching_rect" : [ 10.0, 90.0, 41.0, 136.0 ],
					"saved_attribute_attributes" : 					{
						"valueof" : 						{
							"parameter_initial" : [ -24.0 ],
							"parameter_initial_enable" : 1,
							"parameter_longname" : "live.gain~",
							"parameter_mmax" : 6.0,
							"parameter_mmin" : -70.0,
							"parameter_shortname" : "live.gain~",
							"parameter_type" : 0,
							"parameter_unitstyle" : 4
						}

					}
,
					"showname" : 0,
					"shownumber" : 0,
					"varname" : "live.gain~"
				}

			}
, 			{
				"box" : 				{
					"basictuning" : 440,
					"data" : 					{
						"clips" : [ 							{
								"absolutepath" : "jongly.aif",
								"filename" : "jongly.aif",
								"filekind" : "audiofile",
								"id" : "u077007444",
								"loop" : 1,
								"content_state" : 								{
									"loop" : 1
								}

							}
 ]
					}
,
					"followglobaltempo" : 0,
					"formantcorrection" : 0,
					"id" : "obj-55",
					"maxclass" : "playlist~",
					"mode" : "basic",
					"numinlets" : 1,
					"numoutlets" : 5,
					"originallength" : [ 0.0, "ticks" ],
					"originaltempo" : 120.0,
					"outlettype" : [ "signal", "signal", "signal", "", "dictionary" ],
					"parameter_enable" : 0,
					"patching_rect" : [ 10.0, 10.0, 150.0, 30.0 ],
					"pitchcorrection" : 0,
					"quality" : "basic",
					"timestretch" : [ 0 ]
				}

			}
, 			{
				"box" : 				{
					"id" : "obj-50",
					"maxclass" : "newobj",
					"numinlets" : 1,
					"numoutlets" : 4,
					"outlettype" : [ "signal", "signal", "signal", "signal" ],
					"patcher" : 					{
						"fileversion" : 1,
						"appversion" : 						{
							"major" : 8,
							"minor" : 2,
							"revision" : 2,
							"architecture" : "x64",
							"modernui" : 1
						}
,
						"classnamespace" : "dsp.gen",
						"rect" : [ 679.0, 314.0, 640.0, 480.0 ],
						"bglocked" : 0,
						"openinpresentation" : 0,
						"default_fontsize" : 12.0,
						"default_fontface" : 0,
						"default_fontname" : "Ricty",
						"gridonopen" : 2,
						"gridsize" : [ 10.0, 10.0 ],
						"gridsnaponopen" : 2,
						"objectsnaponopen" : 1,
						"statusbarvisible" : 2,
						"toolbarvisible" : 1,
						"lefttoolbarpinned" : 0,
						"toptoolbarpinned" : 0,
						"righttoolbarpinned" : 0,
						"bottomtoolbarpinned" : 0,
						"toolbars_unpinned_last_save" : 0,
						"tallnewobj" : 0,
						"boxanimatetime" : 200,
						"enablehscroll" : 1,
						"enablevscroll" : 1,
						"devicewidth" : 0.0,
						"description" : "",
						"digest" : "",
						"tags" : "",
						"style" : "",
						"subpatcher_template" : "myTemplate",
						"assistshowspatchername" : 0,
						"boxes" : [ 							{
								"box" : 								{
									"id" : "obj-8",
									"maxclass" : "newobj",
									"numinlets" : 1,
									"numoutlets" : 0,
									"patching_rect" : [ 590.0, 450.0, 38.0, 21.0 ],
									"text" : "out 4"
								}

							}
, 							{
								"box" : 								{
									"id" : "obj-7",
									"maxclass" : "newobj",
									"numinlets" : 1,
									"numoutlets" : 0,
									"patching_rect" : [ 396.666666666666686, 450.0, 38.0, 21.0 ],
									"text" : "out 3"
								}

							}
, 							{
								"box" : 								{
									"id" : "obj-6",
									"maxclass" : "newobj",
									"numinlets" : 1,
									"numoutlets" : 0,
									"patching_rect" : [ 203.333333333333343, 450.0, 38.0, 21.0 ],
									"text" : "out 2"
								}

							}
, 							{
								"box" : 								{
									"code" : "//============================================================\n// Schroeder reverberator (JCREV).\n// https://ccrma.stanford.edu/~jos/pasp/Schroeder_Reverberators.html\n\n//============================================================\n// functions\n\nallpassFilter(x, m, a)\n{\n    Delay delx(SAMPLERATE);\n    Delay dely(SAMPLERATE);\n\n    x1 = delx.read(m);\n    y1 = dely.read(m);\n    y  = (x - y1) * a;\n\n    delx.write(x);\n    dely.write(y+x1);\n\n    return y+x1;\n}\n\nfeedbackCombFilter(x, n, b, a)\n{\n    Delay del(SAMPLERATE);\n\n    y = x * b  - a * del.read(n);\n    del.write(y);\n\n    return y;\n}\n\ndiffuser(x)\n{\n    apf1 = allpassFilter(x,    mstosamps(13.88), 0.7);\n    apf2 = allpassFilter(apf1, mstosamps(4.52),  0.7);\n    apf3 = allpassFilter(apf2, mstosamps(1.48),  0.7);\n\n    return apf3;\n}\n\nrefrector(x)\n{\n    fbcf1 = feedbackCombFilter(x, mstosamps(67.48), 1, 0.773);\n    fbcf2 = feedbackCombFilter(x, mstosamps(82.12), 1, 0.753);\n    fbcf3 = feedbackCombFilter(x, mstosamps(64.04), 1, 0.802);\n    fbcf4 = feedbackCombFilter(x, mstosamps(90.04), 1, 0.733);\n\n    return fbcf1, fbcf2, fbcf3, fbcf4;\n}\n\nmixingMatrix(x1, x2, x3, x4)\n{\n    s1 = x1 + x2;\n    s2 = x3 + x4;\n\n    y1 = s1 + s2;\n    y2 = -y1;\n    y3 = s1 - s2;\n    y4 = -y3;\n\n    return y1, y2, y3, y4;\n}\n\nschroederJcrev(x)\n{\n    return mixingMatrix(refrector(diffuser(x)));\n}\n\n//============================================================\n// main loop\n\nout1, out2, out3, out4 = schroederJcrev(in1);",
									"fontface" : 0,
									"fontname" : "<Monospaced>",
									"fontsize" : 12.0,
									"id" : "obj-5",
									"maxclass" : "codebox",
									"numinlets" : 1,
									"numoutlets" : 4,
									"outlettype" : [ "", "", "", "" ],
									"patching_rect" : [ 10.0, 40.0, 599.0, 400.0 ]
								}

							}
, 							{
								"box" : 								{
									"id" : "obj-1",
									"maxclass" : "newobj",
									"numinlets" : 0,
									"numoutlets" : 1,
									"outlettype" : [ "" ],
									"patching_rect" : [ 10.0, 10.0, 32.0, 21.0 ],
									"text" : "in 1"
								}

							}
, 							{
								"box" : 								{
									"id" : "obj-4",
									"maxclass" : "newobj",
									"numinlets" : 1,
									"numoutlets" : 0,
									"patching_rect" : [ 10.0, 450.0, 38.0, 21.0 ],
									"text" : "out 1"
								}

							}
 ],
						"lines" : [ 							{
								"patchline" : 								{
									"destination" : [ "obj-5", 0 ],
									"source" : [ "obj-1", 0 ]
								}

							}
, 							{
								"patchline" : 								{
									"destination" : [ "obj-4", 0 ],
									"source" : [ "obj-5", 0 ]
								}

							}
, 							{
								"patchline" : 								{
									"destination" : [ "obj-6", 0 ],
									"source" : [ "obj-5", 1 ]
								}

							}
, 							{
								"patchline" : 								{
									"destination" : [ "obj-7", 0 ],
									"source" : [ "obj-5", 2 ]
								}

							}
, 							{
								"patchline" : 								{
									"destination" : [ "obj-8", 0 ],
									"source" : [ "obj-5", 3 ]
								}

							}
 ]
					}
,
					"patching_rect" : [ 10.0, 50.0, 85.999999999999972, 21.0 ],
					"text" : "gen~"
				}

			}
 ],
		"lines" : [ 			{
				"patchline" : 				{
					"destination" : [ "obj-65", 1 ],
					"midpoints" : [ 86.499999999999972, 80.0, 41.5, 80.0 ],
					"source" : [ "obj-50", 3 ]
				}

			}
, 			{
				"patchline" : 				{
					"destination" : [ "obj-65", 0 ],
					"midpoints" : [ 64.166666666666657, 80.0, 19.5, 80.0 ],
					"source" : [ "obj-50", 2 ]
				}

			}
, 			{
				"patchline" : 				{
					"destination" : [ "obj-65", 1 ],
					"source" : [ "obj-50", 1 ]
				}

			}
, 			{
				"patchline" : 				{
					"destination" : [ "obj-65", 0 ],
					"source" : [ "obj-50", 0 ]
				}

			}
, 			{
				"patchline" : 				{
					"destination" : [ "obj-50", 0 ],
					"source" : [ "obj-55", 0 ]
				}

			}
, 			{
				"patchline" : 				{
					"destination" : [ "obj-66", 1 ],
					"midpoints" : [ 25.0, 237.5, 45.5, 237.5 ],
					"source" : [ "obj-65", 1 ]
				}

			}
, 			{
				"patchline" : 				{
					"destination" : [ "obj-66", 0 ],
					"source" : [ "obj-65", 0 ]
				}

			}
 ],
		"parameters" : 		{
			"obj-65" : [ "live.gain~", "live.gain~", 0 ],
			"parameterbanks" : 			{

			}
,
			"inherited_shortname" : 1
		}
,
		"dependency_cache" : [ 			{
				"name" : "jongly.aif",
				"bootpath" : "C74:/media/msp",
				"type" : "AIFF",
				"implicit" : 1
			}
 ],
		"autosave" : 0
	}

}
